<svg width="509" height="404" viewBox="0 0 509 404" fill="none" xmlns="http://www.w3.org/2000/svg">
<g id="units">
<path id="b_3F8491" d="M70.5 34.5164V36.5164L50 37.5164V41.5164L47 34.5164V23.0164L70.5 22.0164L72.5 23.5164V34.5164H70.5Z" fill="#D9D9D9" stroke="#D9D9D9"/>
<path id="b_602540" d="M66.5 18.0163C67.7 18.4163 69.667 20.183 70.5 21.0163L46.5 23.0164L45.5 33.5164L44 29.0164L44.5 19.0163C51.333 18.5163 65.3 17.6163 66.5 18.0163Z" fill="#D9D9D9" stroke="#D9D9D9"/>
<path id="b_707B6B" d="M63.5 15.0164L66.5 17.0164L44 18.5164L43.5 27.0164L41.5 23.5164V22.0164L42 21.5164V15.0164H63.5Z" fill="#D9D9D9" stroke="#D9D9D9"/>
<path id="b_7E4678" d="M59 9.01636L62 14.0164L41.5 14.5164V21.5164L41 22.0164L42 26.0164L39 19.5164V10.5164L59 9.01636Z" fill="#D9D9D9"/>
<path id="b_4F2E4F" d="M56 7.01636C56.4 7.01636 57.833 8.01636 58.5 8.51636V9.01636L39 10.5164V19.5164L37 16.5164V7.51636C43.167 7.34969 55.6 7.01636 56 7.01636Z" fill="#D9D9D9" stroke="#D9D9D9"/>
<path id="b_887755" d="M51.5 3.01636L55.5 6.01636L36.5 7.01636V16.5164L33.5 10.5164L34 3.51636L51.5 3.01636Z" fill="#D9D9D9" stroke="#D9D9D9"/>
<path id="b_718613" d="M47.5 1.01636L50.5 2.51636L33.5 3.01636L33 11.0164L32 10.0164V6.51636V0.516357L47.5 1.01636Z" fill="#D9D9D9" stroke="#D9D9D9"/>
<path id="b_658695" d="M20.5 2.51636L21 4.51636V5.01636L2 5.51636L1.5 13.0164H0.5V3.01636L20.5 2.51636Z" fill="#D9D9D9" stroke="#D9D9D9"/>
<path id="b_8C6D87" d="M22 5.51636L22.5 11.0164L3.5 11.5164L3 16.0164L2 14.0164L2.5 6.01636L22 5.51636Z" fill="#D9D9D9" stroke="#D9D9D9"/>
<path id="b_907437" d="M4 12.0164C3.833 14.5164 3.5 19.7164 3.5 20.5164L4.5 22.0164L5 14.5164L26 14.0164L25 11.5164L4 12.0164Z" fill="#D9D9D9" stroke="#D9D9D9"/>
<path id="b_8C7293" d="M26.5 14.5164L27.5 21.5164H7L6.5 26.5164L5 23.5164L5.5 15.0164L26.5 14.5164Z" fill="#D9D9D9" stroke="#D9D9D9"/>
<path id="b_8F538D" d="M29.5 22.0164L31 23.5164L32 24.5164H8.5L8 30.5164L7 29.0164L7.5 22.0164H29.5Z" fill="#D9D9D9" stroke="#D9D9D9"/>
<path id="b_267191" d="M33 25.5164L33.5 36.5164L9 36.0164L8.5 35.5164L9.5 25.0164L33 25.5164Z" fill="#D9D9D9" stroke="#D9D9D9"/>
<path id="b_3C732B" d="M32.5 37.0164L34 39.5164H34.5L34 40.0164L6.5 41.0164V50.0164H5.5V37.0164H32.5Z" fill="#D9D9D9" stroke="#D9D9D9"/>
<path id="b_658844" d="M35.5 42.5164V49.5164L9 50.5164L8.5 57.0164L6.5 52.5164L7 41.5164L33 40.5164L35.5 42.5164Z" fill="#D9D9D9" stroke="#D9D9D9"/>
<path id="b_717E78" d="M36.5 49.5164L40 53.5164L40.5 54.5164L12 54.0164L10 57.5164L9 57.0164L9.5 51.0164L36.5 49.5164Z" fill="#D9D9D9" stroke="#D9D9D9"/>
<path id="b_835B3C" d="M42.5 58.0164V64.5164V65.0164L13 66.5164L12.5 71.5164C11.667 70.183 10 67.4164 10 67.0164V58.0164L12.5 54.5164L41 55.0164L42.5 58.0164Z" fill="#D9D9D9" stroke="#D9D9D9"/>
<path id="b_745929" d="M46.5 65.5164L48 69.5164L13 73.0164L13.5 67.0164L46.5 65.5164Z" fill="#D9D9D9" stroke="#D9D9D9"/>
<path id="b_54795F" d="M51.5 76.0164L52 85.0164L19 86.5164L18.5 91.5164H17.5C17.1 91.5164 16 87.183 15.5 85.0164V74.0164L12.5 73.5164L48 70.5164L48.5 71.0164L51.5 76.0164Z" fill="#D9D9D9" stroke="#D9D9D9"/>
<path id="b_958695" d="M18.5 101.516L20.5 106.516L21 107.016L21.5 94.0164L59 92.5164L55.5 85.5164L19.5 87.0164L19 92.0164L18.5 101.516Z" fill="#D9D9D9" stroke="#D9D9D9"/>
<path id="b_601220" d="M62 99.0164C62.333 102.516 62.9 109.516 62.5 109.516L25.5 112.016V116.516H23.5L21.5 110.516L22 94.5164L60 93.0164L62 99.0164Z" fill="#D9D9D9" stroke="#D9D9D9"/>
<path id="b_7B7544" d="M67.5 110.516L72.5 120.016L29.5 123.516L29 136.516L26.5 130.016L26 112.516L67.5 110.516Z" fill="#D9D9D9" stroke="#D9D9D9"/>
<path id="b_6D9591" d="M77.5 130.516L77 144.516V145.016L36 147.516V152.016L32.5 150.016L29.5 138.016L30 124.016L73 120.516L77.5 130.516Z" fill="#D9D9D9" stroke="#D9D9D9"/>
<path id="b_3E7C70" d="M84.5 144.016L90.5 157.516L40 162.016V178.016L36 169.016L36.5 148.016L84.5 144.016Z" fill="#D9D9D9" stroke="#D9D9D9"/>
<path id="b_454B81" d="M97 187.516L100 192.516L49.5 198.016L49 203.516L46.5 195.016H43L41 180.516V162.516L91 157.516L97.5 171.016L97 187.516Z" fill="#D9D9D9" stroke="#D9D9D9"/>
<path id="b_898B5F" d="M107.5 192.516L116.5 211.016L54.5 218.016V236.016L49 218.016L50 198.516L107.5 192.516Z" fill="#D9D9D9" stroke="#D9D9D9"/>
<path id="b_636D85" d="M124.5 250.016L133 266.016V269.016L100.5 272.516L99 269.016H98.5L97.5 276.516L69.5 281.016L64.5 261.016L61 260.516L55 238.016L55.5 219.016L117 212.016L128 234.016L124.5 250.016Z" fill="#D9D9D9" stroke="#D9D9D9"/>
<path id="b_778B5F" d="M264.5 368.516L260.5 376.016L218 387.016L205 366.016L206.5 362.016L201.5 354.016L204 346.516L197.5 347.516V342.016L176.5 307.016L191 304.016L197 286.516L228.5 280.016L280 345.016L268.5 368.516H264.5Z" fill="#D9D9D9" stroke="#D9D9D9"/>
<path id="b_465B3B" d="M229 279.516L260 273.516L315.5 337.516L301.5 366.016L261 376.516L265 369.016H269L280.5 345.016L229 279.516Z" fill="#D9D9D9" stroke="#D9D9D9"/>
<path id="b_936878" d="M319 263.016L381 322.016L368.5 344.516L362 345.516L361.5 346.016L356.5 352.516L318 362.016L309.5 351.516L316 337.516L273.5 288.016L282 287.016L289 268.516L319 263.016Z" fill="#D9D9D9" stroke="#D9D9D9"/>
<path id="b_601728" d="M394.5 343.516L357 353.016L362 346.016L369 345.016L382 322.016L319.5 262.516L347.5 256.516L413.5 314.516L394.5 343.516Z" fill="#D9D9D9" stroke="#D9D9D9"/>
<path id="b_353C67" d="M394 277.516L428 306.516L476.5 300.516L485 287.516H490.5L508 266.016L467 238.516L378.5 248.016L377 250.516L399 270.016L394 277.516Z" fill="#D9D9D9" stroke="#D9D9D9"/>
<path id="b_266F8C" d="M373.5 248.016L375.5 250.516H376.5L378 247.516L418.5 243.016L422.5 236.516L416.5 231.516L427.5 212.016L398 192.516L346.5 198.016L337 217.016L340.5 220.016L337.5 228.016L361 249.016L373.5 248.016Z" fill="#D9D9D9" stroke="#D9D9D9"/>
<path id="b_7C8951" d="M316 209.016L337 227.516L340 220.516L336.5 217.016L346 197.516L398 192.016L373.5 175.516L323 180.516L322 183.516L305 185.516L303 188.016L319 202.016L316 209.016Z" fill="#D9D9D9" stroke="#D9D9D9"/>
<path id="b_16406E" d="M339.5 175.516L342.5 178.016L322.5 180.516L322 183.016L304.5 185.016L302.5 188.516H296.5L278 172.516L279 167.516L276 166.016L282.5 149.016L327.5 145.516L346.5 159.016L339.5 175.516Z" fill="#D9D9D9" stroke="#D9D9D9"/>
<path id="b_67406D" d="M308 132.016L327 145.016L282 148.516L275.5 166.016L278.5 167.516L277.5 172.516L263 163.016V157.516H264V155.016L252.5 145.516V142.516L265 140.516V136.516L266.5 135.516L308 132.016Z" fill="#D9D9D9" stroke="#D9D9D9"/>
<path id="b_739594" d="M290 120.016L286 133.016L266.5 135.016L264.5 136.516V140.016L251.5 142.016V145.516L252.5 147.016H248L234.5 135.516V131.016L232.5 128.516L237 113.016L276 111.016L290 120.016Z" fill="#D9D9D9" stroke="#D9D9D9"/>
<path id="b_396365" d="M262.5 101.516L275.5 110.516L237 112.516L231.5 128.516L234 131.016V135.516L223 126.516L224 122.016L214.5 114.016V110.516H224V104.016H225L262.5 101.516Z" fill="#D9D9D9" stroke="#D9D9D9"/>
<path id="b_836A7D" d="M247.5 93.0164L245.5 102.516L223.5 103.516V110.016H214V114.016L217 116.516H210L202 107.516L202.5 102.516L200.5 102.016L203 87.0164L236.5 85.5164L247.5 93.0164Z" fill="#D9D9D9" stroke="#D9D9D9"/>
<path id="b_4A7C6F" d="M227 78.0164L236.5 85.0164L202.5 86.5164L199.5 102.516L202 103.016L201.5 107.516L193 100.016V96.0164L191 93.0164L187.5 91.0164L186 87.0164H193L194 80.0164L227 78.0164Z" fill="#D9D9D9" stroke="#D9D9D9"/>
<path id="b_87518B" d="M216.5 71.0164L214 78.0164L193.5 79.0164L192 86.5164H185L187 91.5164L190 93.0164H182.5L175.5 85.5164L176.5 81.5164L174 79.5164L177 67.0164L206.5 65.0164L216.5 71.0164Z" fill="#D9D9D9" stroke="#D9D9D9"/>
<path id="b_636F8C" d="M199 59.5164L206.5 64.0164L176.5 66.5164L173 79.5164L176 81.5164L175 85.5164L169.5 79.5164V75.5164L163.5 71.0164V67.5164H169V60.5164L199 59.5164Z" fill="#D9D9D9" stroke="#D9D9D9"/>
<path id="b_789288" d="M190.5 54.5164L189.5 59.0164L168 60.0164V67.0164H163L162.5 71.0164L166 74.0164L160.5 73.5164L156.5 69.5164V63.0164H155V51.0164L184 50.0164L190.5 54.5164Z" fill="#D9D9D9" stroke="#D9D9D9"/>
<path id="b_87508A" d="M177 44.5164L183.5 49.5164H184L154.5 50.5164V63.5164H156V69.5164L150 62.5164L149.5 58.5164L145 55.0164V52.5164L148 52.0164V45.5164L177 44.5164Z" fill="#D9D9D9" stroke="#D9D9D9"/>
<path id="b_835A39" d="M169.5 40.0164L169 43.5164V44.0164L147.5 44.5164V51.5164L144 52.5164V55.5164L148 58.0164H145L139 53.5164V49.5164L137.5 48.0164V44.5164L138 44.0164V37.0164H139L164 36.5164L169.5 40.0164Z" fill="#D9D9D9" stroke="#D9D9D9"/>
<path id="b_668D6C" d="M156.5 32.0164L163 36.0164H163.5L137.5 36.5164V44.0164H137V48.0164L138.5 49.5164V53.5164L134.5 49.5164V45.5164L130 43.0164C129.833 42.0164 129.5 39.9164 129.5 39.5164C129.5 39.1164 131.5 39.3497 132.5 39.5164L133 33.0164L156.5 32.0164Z" fill="#D9D9D9" stroke="#D9D9D9"/>
<path id="b_8F4F88" d="M150 27.0164L155.5 31.0164L132.5 32.5164L132 39.0164H131.5H129V40.0164L130 43.5164L134 46.0164L133.5 48.0164L126.5 43.0164L126 40.0164L122 35.0164L126 34.0164V28.0164L150 27.0164Z" fill="#D9D9D9" stroke="#D9D9D9"/>
<path id="b_6E4D83" d="M119.5 35.5164L123.5 41.0164L98.5 43.0164L99 57.0164L94 53.0164L92.5 36.0164L119.5 35.5164Z" fill="#D9D9D9" stroke="#D9D9D9"/>
<path id="b_8E0C16" d="M99 43.5164L126 42.5164L130.5 46.0164L103 47.0164L102.5 59.0164L104.5 61.5164V64.0164L99.5 59.5164L99 43.5164Z" fill="#D9D9D9" stroke="#D9D9D9"/>
<path id="b_875A3A" d="M135.5 51.0164V56.0164V56.5164L113 57.5164V72.0164H111L105.5 65.5164V62.0164L103 58.5164L103.5 47.5164L130.5 46.5164L135.5 51.0164Z" fill="#D9D9D9" stroke="#D9D9D9"/>
<path id="b_685591" d="M112 74.5164L118.5 81.0164H119H119.5V77.5164L117.5 75.5164V63.0164L149 61.5164L142 56.5164L113.5 58.0164V72.5164H112.5L112 74.5164Z" fill="#D9D9D9" stroke="#D9D9D9"/>
<path id="b_718182" d="M118 81.5164L126 89.5164H129V74.5164L154.5 74.0164V68.5164L149.5 62.0164L118 63.5164V75.0164L120 77.0164L119.5 81.5164H118Z" fill="#D9D9D9" stroke="#D9D9D9"/>
<path id="b_5A5E4F" d="M162.5 74.0164L168 79.0164L168.5 79.5164L136 82.5164L135 96.0164L137.5 99.0164V103.016L129.5 94.5164V75.0164L162.5 74.0164Z" fill="#D9D9D9" stroke="#D9D9D9"/>
<path id="b_8A9181" d="M138 104.016L146 112.516H150L152 98.0164L177 96.5164L178 89.5164L169.5 80.0164L136.5 83.0164L135.5 96.0164L138 98.5164V104.016Z" fill="#D9D9D9"/>
<path id="b_8D7F7C" d="M188 96.0164L197 104.016L159 106.516L156.5 121.516L161 125.516L160 129.016L150 118.516L152.5 98.5164L188 96.0164Z" fill="#D9D9D9" stroke="#D9D9D9"/>
<path id="b_579285" d="M160 129.516L171.5 142.516H177L180.5 128.016L205.5 126.516L208 115.516L197.5 104.516L159.5 107.016L157 121.016L161.5 125.016L160 129.516Z" fill="#D9D9D9" stroke="#D9D9D9"/>
<path id="b_898B5C" d="M176 149.016L189.5 164.016L190.5 164.516L191 160.016L186.5 154.516L192 138.516L233.5 136.016L222.5 125.516L181 128.516L177.5 143.016L176 149.016Z" fill="#D9D9D9" stroke="#D9D9D9"/>
<path id="b_90764B" d="M244.5 162.016L249 165.516L218.5 169.016L215 183.016H206L190.5 165.016L191.5 160.016L187 154.516L192.5 139.016L235 136.016L248.5 147.516L244.5 162.016Z" fill="#D9D9D9" stroke="#D9D9D9"/>
<path id="b_496F8C" d="M212.5 191.016L231 212.516L233.5 208.016L229 202.516L234.5 184.516L285 179.516L264.5 164.516L219 169.516L212.5 191.016Z" fill="#D9D9D9" stroke="#D9D9D9"/>
<path id="b_8E938D" d="M254 239.516L231.5 213.016L234 208.016L229.5 202.516L235 185.016L286 180.016L306.5 197.516L301 213.016L313 224.016V228.516L285.5 231.016L281 228.016L277.5 237.016L254 239.516Z" fill="#D9D9D9" stroke="#D9D9D9"/>
<path id="b_8E9592" d="M184.5 247.516L208.5 245.016L213 231.016C211.833 229.183 209.4 225.516 209 225.516H213L217.5 207.016L201.5 188.016L146.5 192.516L142.5 211.516L147.5 217.516L146.5 222.516L159 243.016L162.5 243.516V246.016L180.5 244.016L184.5 247.516Z" fill="#D9D9D9" stroke="#D9D9D9"/>
<path id="b_81907A" d="M189 171.516L201.5 187.516L146 192.016L142 211.516L147 217.516L146 222.516L137 206.516V199.516L127.5 185.016V181.516L136 180.516V175.516L189 171.516Z" fill="#D9D9D9" stroke="#D9D9D9"/>
<path id="b_8F5A33" d="M171.5 171.516L169 172.516L135.5 175.016V180.016L127 181.016V185.016L118.5 171.516V165.516L115.5 162.516L116.5 145.016L163 141.016L174 154.016L171.5 171.516Z" fill="#D9D9D9" stroke="#D9D9D9"/>
<path id="b_504E85" d="M154 130.016L162.5 140.516L116 144.516L115 162.516L118 165.516V171.516L111 160.83V154.516L104.5 145.016L103.5 139.016L109.5 138.516V133.016L154 130.016Z" fill="#D9D9D9" stroke="#D9D9D9"/>
<path id="b_1F5A33" d="M144 118.016L142.5 130.016H142.641L109 132.516V138.016L103 138.516L104 145.016L98 135.016V131.016L95 126.516L95.5 110.016L135.5 108.016L144 118.016Z" fill="#D9D9D9" stroke="#D9D9D9"/>
<path id="b_729592" d="M91.5 126.016L97.5 134.516V131.516L94.5 126.516L95 109.516L135.5 107.516L129 99.5164L90 101.516V108.516L86 109.016L86.5 113.516L92 120.516L91.5 126.016Z" fill="#D9D9D9" stroke="#D9D9D9"/>
<path id="b_95917F" d="M121 90.0164L120.5 99.0164L89.5 100.516V108.016L85.5 108.516L86 114.016L81.5 107.016V103.016L79.5 99.5164L80 85.0164L115 83.5164L121 90.0164Z" fill="#D9D9D9" stroke="#D9D9D9"/>
<path id="b_745795" d="M109 76.5164L115 82.5164L79.5 84.5164L79 99.5164L81 103.516V107.016L77 99.0164V94.5164L73 89.0164L73.5 86.0164H75.5L76 78.0164L109 76.5164Z" fill="#D9D9D9" stroke="#D9D9D9"/>
<path id="b_906C85" d="M104 69.5164L103.5 76.0164L75.5 77.5164L75 85.5164H73L72.5 89.0164L70 87.0164L69.5 82.0164L67 79.0164V65.0164L99 64.0164L104 69.5164Z" fill="#D9D9D9" stroke="#D9D9D9"/>
<path id="b_3F838B" d="M94.5 58.5164L99 63.5164L66 64.5164V76.5164L62 68.5164L61.5 67.0164L64 66.5164L64.5 59.5164L94.5 58.5164Z" fill="#D9D9D9" stroke="#D9D9D9"/>
<path id="b_807B6A" d="M90 53.0164V57.5164L64 59.0164L63.5 66.0164L61 66.5164L63 73.0164L60 67.5164V65.0164L57.5 62.0164V49.5164L86 48.5164L90 53.0164Z" fill="#D9D9D9" stroke="#D9D9D9"/>
<path id="b_767A64" d="M82.5 44.0164L86 47.5164L57 49.0164L56.5 59.0164L54 54.0164L53.5 51.5164H55L54.5 44.5164L82.5 44.0164Z" fill="#D9D9D9" stroke="#D9D9D9"/>
<path id="b_684A7E" d="M51.5 38.0164L71.5 37.5164H77.5L81.5 43.5164H54.5V50.5164L52.5 51.5164L49.5 45.5164L50.5 46.0164L51.5 38.0164Z" fill="#D9D9D9" stroke="#D9D9D9"/>
<path id="b_847D73" d="M206 374.516L200.5 390.516L153.5 403.016L127 343.516L129.5 329.516L125 323.016L129.5 299.516L164.5 292.016L174 308.016H176.5L197 342.016V348.016L206 362.016L202.5 370.516L206 374.516Z" fill="#D9D9D9" stroke="#D9D9D9"/>
</g>
</svg>
