<svg width="472" height="382" viewBox="0 0 472 382" fill="none" xmlns="http://www.w3.org/2000/svg">
<g id="unitsmirror">
<g id="units">
<path id="b_267191" d="M16.672 42.5249L19.172 46.0249L47.672 42.0249L50.672 46.0249H51.672L49.172 42.0249L45.172 30.0249L16.172 34.0249L16.672 42.5249Z" fill="#D9D9D9" stroke="#D9D9D9"/>
<path id="b_8F538D" d="M13.672 30.5249L15.172 39.5249L15.672 40.0249V33.5249L44.672 28.5249L42.672 26.5249L13.672 30.5249Z" fill="#D9D9D9" stroke="#D9D9D9"/>
<path id="b_8C7293" d="M9.17203 22.5249L13.172 35.0249H13.672L13.172 30.0249L39.172 26.0249L35.672 18.5249L9.17203 22.5249Z" fill="#D9D9D9" stroke="#D9D9D9"/>
<path id="b_907437" d="M33.672 15.0249L7.17203 19.0249L6.17203 19.5249L9.67203 30.0249L10.672 28.5249L8.67203 22.0249L35.172 18.0249L33.672 15.0249Z" fill="#D9D9D9" stroke="#D9D9D9"/>
<path id="b_8C6D87" d="M28.172 8.52493L3.17203 12.0249H2.67203L5.17203 23.0249L6.67203 23.5249L6.17203 19.0249L30.172 15.0249V10.5249L28.172 8.52493Z" fill="#D9D9D9" stroke="#D9D9D9"/>
<path id="b_658695" d="M26.172 5.52493L1.17203 9.02493H0.672028L3.67203 19.0249L2.17203 11.5249L27.672 7.52493L26.172 5.52493Z" fill="#D9D9D9" stroke="#D9D9D9"/>
<path id="b_718613" d="M40.172 2.52493V10.5249L42.172 13.0249L42.672 5.02493L62.172 2.52493L60.672 0.524933L40.172 2.52493Z" fill="#D9D9D9" stroke="#D9D9D9"/>
<path id="b_887755" d="M43.172 5.52493L42.672 13.5249L48.672 21.0249L47.672 10.5249L68.672 7.02493L65.172 3.02493L43.172 5.52493Z" fill="#D9D9D9"/>
<path id="b_4F2E4F" d="M49.172 11.0249L48.672 21.0249L50.672 22.5249L51.172 13.5249L73.172 9.02493L70.672 7.02493L49.172 11.0249Z" fill="#D9D9D9" stroke="#D9D9D9"/>
<path id="b_7E4678" d="M51.672 14.5249V23.0249V25.5249L56.672 30.5249H58.172L55.672 28.0249V19.0249L77.172 15.0249V12.5249L73.672 9.52493L51.672 14.5249Z" fill="#D9D9D9" stroke="#D9D9D9"/>
<path id="b_707B6B" d="M56.172 19.5249V27.5249H56.672L58.672 30.5249V21.5249L83.672 18.0249L80.672 15.0249L56.172 19.5249Z" fill="#D9D9D9" stroke="#D9D9D9"/>
<path id="b_602540" d="M59.672 22.0249V31.5249V35.5249L66.672 41.5249V39.0249L63.672 36.0249L63.172 26.0249L87.172 22.0249L84.672 18.5249L59.672 22.0249Z" fill="#D9D9D9" stroke="#D9D9D9"/>
<path id="b_3F8491" d="M69.672 43.0249L69.172 45.0249L67.172 43.5249V39.0249L64.172 35.5249L63.672 26.5249L87.672 22.5249L93.172 26.0249L93.672 28.0249L94.172 36.0249L92.672 36.5249V39.5249L69.672 43.0249Z" fill="#D9D9D9" stroke="#D9D9D9"/>
<path id="b_835B3C" d="M27.172 80.5249L31.172 87.0249H31.672V80.0249L65.672 74.0249V73.0249L65.172 68.0249L61.672 62.5249L26.672 68.5249L27.172 80.5249Z" fill="#D9D9D9" stroke="#D9D9D9"/>
<path id="b_717E78" d="M23.672 70.0249L26.172 77.5249V67.5249L60.672 61.0249L58.172 57.5249L23.672 63.0249V70.0249Z" fill="#D9D9D9" stroke="#D9D9D9"/>
<path id="b_658844" d="M19.172 61.0249L21.672 68.5249L22.672 69.5249V62.5249L54.672 57.0249L54.172 51.5249L50.672 47.5249L18.172 53.0249L19.172 61.0249Z" fill="#D9D9D9" stroke="#D9D9D9"/>
<path id="b_3C732B" d="M47.172 43.0249L15.672 49.0249H15.172L18.672 62.5249L17.672 52.5249L50.172 46.5249L47.172 43.0249Z" fill="#D9D9D9" stroke="#D9D9D9"/>
<path id="b_496F8C" d="M259.672 149.025L258.172 170.025L277.672 186.025V180.525L274.672 178.525L275.172 160.025L314.672 145.525L297.172 136.025L259.672 149.025Z" fill="#D9D9D9" stroke="#D9D9D9"/>
<path id="b_8E938D" d="M278.672 180.025V187.025L299.172 205.525L318.172 196.525V190.025L320.172 188.525L322.672 191.025L341.672 182.525V180.025L330.672 171.525L332.672 157.025L315.672 146.025L276.172 161.025L275.672 178.025L278.672 180.025Z" fill="#D9D9D9" stroke="#D9D9D9"/>
<path id="b_8E9592" d="M238.672 226.025L224.672 232.525L222.172 233.025L220.172 231.025L218.672 231.525L204.672 215.025V210.525L199.672 206.025V186.525L248.172 169.025L264.172 183.525L263.172 201.525L261.172 203.525L263.172 206.025L262.672 220.025L242.672 229.025L238.672 226.025Z" fill="#D9D9D9" stroke="#D9D9D9"/>
<path id="b_81907A" d="M180.172 179.025V182.525L192.172 195.525V200.025L203.672 214.525V211.025L199.172 207.025V186.025L247.172 168.025L233.672 156.525L186.672 173.025V177.025L180.172 179.025Z" fill="#D9D9D9" stroke="#D9D9D9"/>
<path id="b_8F5A33" d="M167.672 167.525V170.525L179.172 183.025V178.025L185.672 176.025V172.025L217.172 161.025V160.025L218.172 159.025V143.025L206.172 132.025L163.172 145.525L162.672 163.025L167.672 167.525Z" fill="#D9D9D9" stroke="#D9D9D9"/>
<path id="b_504E85" d="M167.172 167.525V170.025H166.672L158.172 161.025V156.525L148.672 145.525L148.172 142.525L153.172 141.025V134.525L195.172 122.525L205.672 131.525L162.672 145.025L162.172 163.025L167.172 167.525Z" fill="#D9D9D9" stroke="#D9D9D9"/>
<path id="b_1F5A33" d="M140.172 134.525V137.525V138.025L148.672 148.025L149.672 147.525L147.672 146.025L147.172 142.025L152.672 140.025V134.025L183.672 125.025V112.525L174.172 104.025L135.172 114.525L135.672 130.025L140.172 134.525Z" fill="#D9D9D9" stroke="#D9D9D9"/>
<path id="b_729592" d="M132.672 130.025L139.172 137.525L139.672 134.525L134.672 130.025L134.172 114.025L173.672 103.525L165.672 97.0249L127.172 105.525V112.025L123.672 114.525V116.525L132.672 126.025V130.025Z" fill="#D9D9D9" stroke="#D9D9D9"/>
<path id="b_95917F" d="M119.172 109.525V112.025V112.525L122.672 116.025V114.525L126.672 111.525V104.525L156.672 98.0249V88.5249L149.172 82.0249L113.172 90.0249L113.672 104.525L119.172 109.525Z" fill="#D9D9D9" stroke="#D9D9D9"/>
<path id="b_745795" d="M104.672 91.5249V94.5249V95.0249L111.672 102.025L112.172 105.525L118.172 112.025V109.525L113.172 105.025L112.672 89.5249L148.672 81.0249L143.172 76.0249L106.672 83.5249V90.5249L104.672 91.5249Z" fill="#D9D9D9" stroke="#D9D9D9"/>
<path id="b_906C85" d="M100.672 91.5249L104.172 95.0249V91.0249L106.172 90.0249V83.0249L135.172 77.0249L134.672 69.0249L128.672 64.0249L95.672 71.0249L96.672 85.0249L100.672 89.0249V91.5249Z" fill="#D9D9D9" stroke="#D9D9D9"/>
<path id="b_3F838B" d="M89.672 72.5249L89.172 74.5249L95.672 84.0249L94.672 70.5249L128.172 63.0249L123.672 59.0249L90.672 65.0249V72.5249H89.672Z" fill="#D9D9D9" stroke="#D9D9D9"/>
<path id="b_807B6A" d="M85.172 72.5249L90.172 78.5249L90.672 78.0249L88.672 74.5249L89.172 72.0249H90.172V64.0249L117.172 59.0249V53.5249L111.672 49.0249L81.172 54.0249L81.672 66.0249L86.172 71.0249L85.172 72.5249Z" fill="#D9D9D9" stroke="#D9D9D9"/>
<path id="b_767A64" d="M76.672 57.0249V59.5249L81.172 66.0249L80.672 53.5249L111.172 48.5249L107.672 45.0249L76.672 49.5249V53.0249L77.672 54.0249L77.172 57.0249H76.672Z" fill="#D9D9D9" stroke="#D9D9D9"/>
<path id="b_684A7E" d="M70.172 53.0249L75.672 59.0249L76.172 49.5249L104.877 44.0249V43.5249L100.672 39.0249L70.172 43.5249V45.0249L71.172 46.5249L71.672 48.5249L71.172 50.5249H70.172V53.0249Z" fill="#D9D9D9" stroke="#D9D9D9"/>
<path id="b_636D85" d="M174.172 211.525L112.172 234.525L114.172 255.025L126.172 277.025H129.672L138.172 294.525L166.672 282.525V272.525L170.172 277.025L197.672 262.525V260.025L188.172 249.025V231.025L174.172 211.525Z" fill="#D9D9D9" stroke="#D9D9D9"/>
<path id="b_898B5F" d="M103.172 223.525L104.672 236.025L113.172 252.525L111.172 234.025L173.672 210.525L160.672 195.025L102.172 216.025L103.172 223.525Z" fill="#D9D9D9" stroke="#D9D9D9"/>
<path id="b_454B81" d="M137.672 164.025L84.172 181.025L85.672 198.025L94.172 214.525L97.672 214.025L102.672 223.025L101.172 215.525L152.672 197.025L148.672 192.525L148.172 176.525L137.672 164.025Z" fill="#D9D9D9" stroke="#D9D9D9"/>
<path id="b_3E7C70" d="M128.672 151.525L75.672 167.525L79.672 186.025L84.672 195.525L83.172 180.025L137.672 163.025L128.672 151.525Z" fill="#D9D9D9" stroke="#D9D9D9"/>
<path id="b_6D9591" d="M111.172 129.025L63.672 141.525L65.672 158.025L72.672 168.525L120.672 153.025L120.172 139.025L111.172 129.025Z" fill="#D9D9D9" stroke="#D9D9D9"/>
<path id="b_7B7544" d="M104.172 119.025L58.172 131.025L60.172 145.525L64.672 156.025L63.172 141.525L111.172 128.025L104.172 119.025Z" fill="#D9D9D9" stroke="#D9D9D9"/>
<path id="b_601220" d="M50.172 125.525L55.172 135.025H56.672V130.525L98.172 119.525L97.172 110.525L90.672 101.025L48.672 111.025L50.172 125.525Z" fill="#D9D9D9" stroke="#D9D9D9"/>
<path id="b_958695" d="M85.172 93.5249L43.672 102.525L44.172 110.525L49.172 124.525L47.672 110.525L90.172 100.025L85.172 93.5249Z" fill="#D9D9D9" stroke="#D9D9D9"/>
<path id="b_54795F" d="M36.672 98.0249L41.172 108.025H43.172V102.025L80.672 93.5249L80.172 86.5249L74.172 79.5249L35.172 87.5249L36.672 98.0249Z" fill="#D9D9D9" stroke="#D9D9D9"/>
<path id="Vector 57" d="M69.672 74.0249L32.672 80.5249H32.4005L32.672 87.5249L35.672 96.0249L34.672 87.0249L73.672 79.0249L69.672 74.0249Z" fill="#D9D9D9" stroke="#D9D9D9"/>
<path id="b_8E0C16" d="M128.172 55.0249V59.0249L134.172 63.5249L134.672 60.5249L131.172 57.5249L130.172 46.0249L157.672 41.5249L153.172 38.5249H149.672L125.172 43.0249L126.172 53.0249L128.172 55.0249Z" fill="#D9D9D9" stroke="#D9D9D9"/>
<path id="b_875A3A" d="M135.672 60.5249L135.172 64.0249V64.5249L144.172 72.0249L145.172 69.5249L142.672 68.0249L142.172 55.0249L164.672 51.0249V46.5249L158.672 42.5249L131.172 47.0249L132.172 57.0249L135.672 60.5249Z" fill="#D9D9D9" stroke="#D9D9D9"/>
<path id="b_685591" d="M153.172 80.0249L145.172 73.5249V73.0249V70.5249L145.672 69.5249L143.172 67.5249L142.672 55.5249L170.172 50.5249L178.172 55.0249L148.672 60.5249L149.172 73.0249L153.172 76.5249V80.0249Z" fill="#D9D9D9" stroke="#D9D9D9"/>
<path id="b_718182" d="M163.172 71.5249V87.5249H161.672L153.672 81.0249V76.0249L149.672 73.0249V61.0249L178.672 55.5249L185.172 60.0249V67.5249L163.172 71.5249Z" fill="#D9D9D9" stroke="#D9D9D9"/>
<path id="b_5A5E4F" d="M164.172 72.0249V86.0249H165.172V91.0249L174.672 98.5249V94.0249L171.172 92.0249L170.672 78.0249L202.172 70.5249L194.672 66.0249L164.172 72.0249Z" fill="#D9D9D9" stroke="#D9D9D9"/>
<path id="b_8A9181" d="M188.172 106.025L186.172 108.025L175.172 99.5249V93.5249L171.672 92.0249L171.172 78.5249L203.172 71.0249L211.172 77.5249V86.0249L188.172 91.5249V106.025Z" fill="#D9D9D9" stroke="#D9D9D9"/>
<path id="b_8D7F7C" d="M190.172 106.525V111.525L201.672 121.525V116.525L197.172 114.025V99.0249L231.172 90.0249L222.172 83.5249L212.172 86.0249L188.672 92.0249V106.025L190.172 106.525Z" fill="#D9D9D9" stroke="#D9D9D9"/>
<path id="b_579285" d="M219.172 131.025L215.172 132.525L202.172 122.525V116.025L197.672 114.025V99.5249L231.672 90.5249L242.172 97.0249V110.025L219.172 116.025V131.025Z" fill="#D9D9D9" stroke="#D9D9D9"/>
<path id="b_898B5C" d="M220.172 116.525V137.525V138.025L234.672 150.025V145.025L231.172 142.525V125.525L267.672 114.025L256.172 106.525L220.172 116.525Z" fill="#D9D9D9" stroke="#D9D9D9"/>
<path id="Vector 32" d="M258.172 161.525L252.172 164.025L235.172 151.025V144.525L232.172 142.025V126.025L268.172 114.525L281.672 123.525V137.025L284.672 139.525L259.172 148.525L258.172 161.525Z" fill="#D9D9D9" stroke="#D9D9D9"/>
<path id="b_8F4F88" d="M148.672 29.5249V31.5249L153.672 35.5249V38.0249L161.672 43.5249V41.0249L156.172 38.0249V34.0249H158.172L158.672 27.5249L180.172 23.5249L174.672 19.0249L150.672 24.0249L150.172 29.5249H148.672Z" fill="#D9D9D9" stroke="#D9D9D9"/>
<path id="b_266F8C" d="M386.672 186.025L379.672 190.025L360.672 177.525L361.172 169.525L359.172 169.025L361.672 151.525L396.172 137.025L417.672 148.525L413.672 166.025L416.672 169.525L414.672 175.525L388.672 188.025L386.672 186.025Z" fill="#D9D9D9" stroke="#D9D9D9"/>
<path id="b_7C8951" d="M343.172 158.525L342.172 165.525L360.172 177.525L360.672 170.025L358.672 169.525L361.172 151.025L395.672 136.525L378.672 127.025L343.672 140.025L342.672 143.025L329.672 149.025L343.172 158.525Z" fill="#D9D9D9" stroke="#D9D9D9"/>
<path id="b_16406E" d="M308.672 135.525V140.025L325.172 151.525L342.172 142.525L343.172 139.525L357.172 134.525L354.672 131.525L358.172 116.525L342.672 108.525L308.672 119.025L306.172 134.525L308.672 135.525Z" fill="#D9D9D9" stroke="#D9D9D9"/>
<path id="b_67406D" d="M295.672 127.025L295.172 134.525L308.172 140.525V136.025L305.172 135.025L308.172 118.525L342.172 108.025L327.172 100.025L294.172 110.025V114.525L284.672 118.525V120.525L295.672 127.025Z" fill="#D9D9D9" stroke="#D9D9D9"/>
<path id="b_739594" d="M268.672 109.025V114.025L281.672 123.025L286.172 122.025L284.172 121.025V118.025L293.672 114.025V109.525L309.672 104.525V97.5249L310.672 96.0249V91.5249L297.672 84.5249L266.172 93.0249V108.525L268.672 109.025Z" fill="#D9D9D9" stroke="#D9D9D9"/>
<path id="b_396365" d="M257.172 102.525V106.525L267.672 113.525V110.025L265.672 109.525V92.5249L296.172 84.0249L287.172 79.0249L255.172 87.0249V92.5249L248.672 94.0249V96.0249L257.172 102.525Z" fill="#D9D9D9" stroke="#D9D9D9"/>
<path id="b_836A7D" d="M235.672 88.5249V92.0249V92.5249L242.672 96.5249V99.5249L250.172 99.0249L250.672 98.5249L248.172 96.5249L247.672 94.0249L254.672 92.0249V86.5249L273.172 81.5249V72.0249L262.172 66.0249L233.672 73.5249V87.5249L235.672 88.5249Z" fill="#D9D9D9" stroke="#D9D9D9"/>
<path id="b_4A7C6F" d="M226.672 82.0249V86.0249V86.5249L235.172 92.0249V89.0249L233.172 88.0249V73.0249L261.672 65.5249L254.172 61.0249L224.672 68.0249V74.0249L219.672 77.0249L226.672 82.0249Z" fill="#D9D9D9" stroke="#D9D9D9"/>
<path id="b_87518B" d="M209.172 75.0249L216.172 81.5249L223.672 80.5249L218.672 77.0249L223.672 73.5249V67.5249L242.672 63.0249V62.5249V56.0249L234.172 51.0249L206.672 57.0249V69.0249L209.172 70.0249V75.0249Z" fill="#D9D9D9" stroke="#D9D9D9"/>
<path id="b_636F8C" d="M201.172 66.0249V69.0249L208.672 74.5249V70.5249L206.172 69.5249V56.5249L233.672 50.5249L233.172 50.0249L226.172 46.5249L198.672 52.0249V58.5249L194.172 59.5249V61.5249L201.172 66.0249Z" fill="#D9D9D9" stroke="#D9D9D9"/>
<path id="b_789288" d="M186.672 56.5249V61.0249L191.172 65.0249H198.172L193.672 61.5249V59.0249L198.172 58.0249V51.5249L216.672 47.5249V42.0249L210.172 38.0249L184.172 43.0249V55.0249L186.672 56.5249Z" fill="#D9D9D9" stroke="#D9D9D9"/>
<path id="b_87508A" d="M185.172 59.2612V61.0249H186.172V57.0249L183.672 55.5249V42.5249L208.672 37.5249L203.672 34.0249L177.172 39.0249V45.5249C176.339 45.8583 174.572 46.5249 174.172 46.5249C173.772 46.5249 173.672 47.1916 173.672 47.5249L174.672 49.0249L180.172 51.0249V56.0249L185.172 59.2612Z" fill="#D9D9D9" stroke="#D9D9D9"/>
<path id="b_835A39" d="M167.672 48.5249L174.172 52.0249L178.172 51.0249L173.172 48.5249V46.0249L176.672 45.0249V38.5249L195.172 34.8672V31.0249L189.172 27.5249L165.172 32.0249V42.0249L167.672 44.0249V48.5249Z" fill="#D9D9D9" stroke="#D9D9D9"/>
<path id="b_668D6C" d="M162.172 44.0249L166.672 48.0249L167.172 48.5249V44.0249L164.672 42.5249V31.5249L188.172 26.5249L183.672 24.0249L159.172 28.0249L158.672 34.5249H156.672V37.5249L162.172 40.5249V44.0249Z" fill="#D9D9D9" stroke="#D9D9D9"/>
<path id="b_847D73" d="M207.172 322.525V335.525L239.672 381.025L240.172 380.525L276.672 353.525V343.525L277.672 341.525V336.025L276.172 335.525V334.525L277.172 329.525V325.025L267.672 316.525V312.525L244.172 287.025L242.172 287.525L232.172 276.525L201.672 294.025V316.025L207.172 322.525Z" fill="#D9D9D9" stroke="#D9D9D9"/>
<path id="b_778B5F" d="M257.172 279.525L244.672 286.525L268.172 312.525V316.025L269.172 317.025L273.172 312.525V320.525L277.672 324.525V329.525L290.672 344.025L323.172 320.525V315.525L323.672 315.025L327.672 312.525L332.172 293.525V290.025L285.672 247.525L257.172 263.525V279.525Z" fill="#D9D9D9" stroke="#D9D9D9"/>
<path id="b_465B3B" d="M309.172 233.025L286.172 247.025L333.172 289.525V293.025L332.672 294.025L328.172 313.025L324.172 315.525V320.525L351.172 301.025L357.172 273.525L309.172 233.025Z" fill="#D9D9D9" stroke="#D9D9D9"/>
<path id="b_936878" d="M326.672 238.525L321.672 242.525L357.672 273.525L354.672 288.025L361.672 294.025L388.672 275.025L389.172 269.025L393.672 265.525L399.672 245.525L351.672 210.525L329.672 222.525L326.672 238.525Z" fill="#D9D9D9" stroke="#D9D9D9"/>
<path id="b_601728" d="M370.672 199.525L352.172 210.025L400.672 245.525L394.672 266.025L390.172 269.525L389.672 275.025L410.672 258.525L419.172 232.025L370.672 199.525Z" fill="#D9D9D9" stroke="#D9D9D9"/>
<path id="b_353C67" d="M406.172 200.025L404.172 206.025V207.025L427.672 223.525L456.172 207.525L460.172 196.525L463.172 196.025L470.672 176.025L445.172 162.025L389.172 188.025L406.172 200.025Z" fill="#D9D9D9" stroke="#D9D9D9"/>
<path id="b_6E4D83" d="M117.672 35.5249V47.5249L120.672 49.5249V52.0249L127.672 58.0249V55.5249L125.672 53.5249L124.672 42.0249L149.172 38.0249V35.0249L144.672 31.5249L117.672 35.5249Z" fill="#D9D9D9" stroke="#D9D9D9"/>
</g>
</g>
</svg>
