<svg width="509" height="404" viewBox="0 0 509 404" fill="none" xmlns="http://www.w3.org/2000/svg">
<g id="units 1" clip-path="url(#clip0_75_83)">
<g id="units">
<path id="b_3F8491" d="M438.234 34.5164V36.5164L458.734 37.5164V41.5164L461.734 34.5164V23.0164L438.234 22.0164L436.234 23.5164V34.5164H438.234Z" fill="#D9D9D9" stroke="#D9D9D9"/>
<path id="b_602540" d="M442.234 18.0163C441.034 18.4163 439.067 20.183 438.234 21.0163L462.234 23.0164L463.234 33.5164L464.734 29.0164L464.234 19.0163C457.401 18.5163 443.434 17.6163 442.234 18.0163Z" fill="#D9D9D9" stroke="#D9D9D9"/>
<path id="b_707B6B" d="M445.234 15.0164L442.234 17.0164L464.734 18.5164L465.234 27.0164L467.234 23.5164V22.0164L466.734 21.5164V15.0164H445.234Z" fill="#D9D9D9" stroke="#D9D9D9"/>
<path id="b_7E4678" d="M449.734 9.01636L446.734 14.0164L467.234 14.5164V21.5164L467.734 22.0164L466.734 26.0164L469.734 19.5164V10.5164L449.734 9.01636Z" fill="#D9D9D9"/>
<path id="b_4F2E4F" d="M452.734 7.01636C452.334 7.01636 450.901 8.01636 450.234 8.51636V9.01636L469.734 10.5164V19.5164L471.734 16.5164V7.51636C465.567 7.34969 453.134 7.01636 452.734 7.01636Z" fill="#D9D9D9" stroke="#D9D9D9"/>
<path id="b_887755" d="M457.234 3.01636L453.234 6.01636L472.234 7.01636V16.5164L475.234 10.5164L474.734 3.51636L457.234 3.01636Z" fill="#D9D9D9" stroke="#D9D9D9"/>
<path id="b_718613" d="M461.234 1.01636L458.234 2.51636L475.234 3.01636L475.734 11.0164L476.734 10.0164V6.51636V0.516357L461.234 1.01636Z" fill="#D9D9D9" stroke="#D9D9D9"/>
<path id="b_658695" d="M488.234 2.51636L487.734 4.51636V5.01636L506.734 5.51636L507.234 13.0164H508.234V3.01636L488.234 2.51636Z" fill="#D9D9D9" stroke="#D9D9D9"/>
<path id="b_8C6D87" d="M486.734 5.51636L486.234 11.0164L505.234 11.5164L505.734 16.0164L506.734 14.0164L506.234 6.01636L486.734 5.51636Z" fill="#D9D9D9" stroke="#D9D9D9"/>
<path id="b_907437" d="M504.734 12.0164C504.901 14.5164 505.234 19.7164 505.234 20.5164L504.234 22.0164L503.734 14.5164L482.734 14.0164L483.734 11.5164L504.734 12.0164Z" fill="#D9D9D9" stroke="#D9D9D9"/>
<path id="b_8C7293" d="M482.234 14.5164L481.234 21.5164H501.734L502.234 26.5164L503.734 23.5164L503.234 15.0164L482.234 14.5164Z" fill="#D9D9D9" stroke="#D9D9D9"/>
<path id="b_8F538D" d="M479.234 22.0164L477.734 23.5164L476.734 24.5164H500.234L500.734 30.5164L501.734 29.0164L501.234 22.0164H479.234Z" fill="#D9D9D9" stroke="#D9D9D9"/>
<path id="b_267191" d="M475.734 25.5164L475.234 36.5164L499.734 36.0164L500.234 35.5164L499.234 25.0164L475.734 25.5164Z" fill="#D9D9D9" stroke="#D9D9D9"/>
<path id="b_3C732B" d="M476.234 37.0164L474.734 39.5164H474.234L474.734 40.0164L502.234 41.0164V50.0164H503.234V37.0164H476.234Z" fill="#D9D9D9" stroke="#D9D9D9"/>
<path id="b_658844" d="M473.234 42.5164V49.5164L499.734 50.5164L500.234 57.0164L502.234 52.5164L501.734 41.5164L475.734 40.5164L473.234 42.5164Z" fill="#D9D9D9" stroke="#D9D9D9"/>
<path id="b_717E78" d="M472.234 49.5164L468.734 53.5164L468.234 54.5164L496.734 54.0164L498.734 57.5164L499.734 57.0164L499.234 51.0164L472.234 49.5164Z" fill="#D9D9D9" stroke="#D9D9D9"/>
<path id="b_835B3C" d="M466.234 58.0164V64.5164V65.0164L495.734 66.5164L496.234 71.5164C497.067 70.183 498.734 67.4164 498.734 67.0164V58.0164L496.234 54.5164L467.734 55.0164L466.234 58.0164Z" fill="#D9D9D9" stroke="#D9D9D9"/>
<path id="b_745929" d="M462.234 65.5164L460.734 69.5164L495.734 73.0164L495.234 67.0164L462.234 65.5164Z" fill="#D9D9D9" stroke="#D9D9D9"/>
<path id="b_54795F" d="M457.234 76.0164L456.734 85.0164L489.734 86.5164L490.234 91.5164H491.234C491.634 91.5164 492.734 87.183 493.234 85.0164V74.0164L496.234 73.5164L460.734 70.5164L460.234 71.0164L457.234 76.0164Z" fill="#D9D9D9" stroke="#D9D9D9"/>
<path id="b_958695" d="M490.234 101.516L488.234 106.516L487.734 107.016L487.234 94.0164L449.734 92.5164L453.234 85.5164L489.234 87.0164L489.734 92.0164L490.234 101.516Z" fill="#D9D9D9" stroke="#D9D9D9"/>
<path id="b_601220" d="M446.734 99.0164C446.401 102.516 445.834 109.516 446.234 109.516L483.234 112.016V116.516H485.234L487.234 110.516L486.734 94.5164L448.734 93.0164L446.734 99.0164Z" fill="#D9D9D9" stroke="#D9D9D9"/>
<path id="b_7B7544" d="M441.234 110.516L436.234 120.016L479.234 123.516L479.734 136.516L482.234 130.016L482.734 112.516L441.234 110.516Z" fill="#D9D9D9" stroke="#D9D9D9"/>
<path id="b_6D9591" d="M431.234 130.516L431.734 144.516V145.016L472.734 147.516V152.016L476.234 150.016L479.234 138.016L478.734 124.016L435.734 120.516L431.234 130.516Z" fill="#D9D9D9" stroke="#D9D9D9"/>
<path id="b_3E7C70" d="M424.234 144.016L418.234 157.516L468.734 162.016V178.016L472.734 169.016L472.234 148.016L424.234 144.016Z" fill="#D9D9D9" stroke="#D9D9D9"/>
<path id="b_454B81" d="M411.734 187.516L408.734 192.516L459.234 198.016L459.734 203.516L462.234 195.016H465.734L467.734 180.516V162.516L417.734 157.516L411.234 171.016L411.734 187.516Z" fill="#D9D9D9" stroke="#D9D9D9"/>
<path id="b_898B5F" d="M401.234 192.516L392.234 211.016L454.234 218.016V236.016L459.734 218.016L458.734 198.516L401.234 192.516Z" fill="#D9D9D9" stroke="#D9D9D9"/>
<path id="b_636D85" d="M384.234 250.016L375.734 266.016V269.016L408.234 272.516L409.734 269.016H410.234L411.234 276.516L439.234 281.016L444.234 261.016L447.734 260.516L453.734 238.016L453.234 219.016L391.734 212.016L380.734 234.016L384.234 250.016Z" fill="#D9D9D9" stroke="#D9D9D9"/>
<path id="b_778B5F" d="M244.234 368.516L248.234 376.016L290.734 387.016L303.734 366.016L302.234 362.016L307.234 354.016L304.734 346.516L311.234 347.516V342.016L332.234 307.016L317.734 304.016L311.734 286.516L280.234 280.016L228.734 345.016L240.234 368.516H244.234Z" fill="#D9D9D9" stroke="#D9D9D9"/>
<path id="b_465B3B" d="M279.734 279.516L248.734 273.516L193.234 337.516L207.234 366.016L247.734 376.516L243.734 369.016H239.734L228.234 345.016L279.734 279.516Z" fill="#D9D9D9" stroke="#D9D9D9"/>
<path id="b_936878" d="M189.734 263.016L127.734 322.016L140.234 344.516L146.734 345.516L147.234 346.016L152.234 352.516L190.734 362.016L199.234 351.516L192.734 337.516L235.234 288.016L226.734 287.016L219.734 268.516L189.734 263.016Z" fill="#D9D9D9" stroke="#D9D9D9"/>
<path id="b_601728" d="M114.234 343.516L151.734 353.016L146.734 346.016L139.734 345.016L126.734 322.016L189.234 262.516L161.234 256.516L95.234 314.516L114.234 343.516Z" fill="#D9D9D9" stroke="#D9D9D9"/>
<path id="b_353C67" d="M114.734 277.516L80.734 306.516L32.234 300.516L23.734 287.516H18.234L0.734009 266.016L41.734 238.516L130.234 248.016L131.734 250.516L109.734 270.016L114.734 277.516Z" fill="#D9D9D9" stroke="#D9D9D9"/>
<path id="b_266F8C" d="M135.234 248.016L133.234 250.516H132.234L130.734 247.516L90.234 243.016L86.234 236.516L92.234 231.516L81.234 212.016L110.734 192.516L162.234 198.016L171.734 217.016L168.234 220.016L171.234 228.016L147.734 249.016L135.234 248.016Z" fill="#D9D9D9" stroke="#D9D9D9"/>
<path id="b_7C8951" d="M192.734 209.016L171.734 227.516L168.734 220.516L172.234 217.016L162.734 197.516L110.734 192.016L135.234 175.516L185.734 180.516L186.734 183.516L203.734 185.516L205.734 188.016L189.734 202.016L192.734 209.016Z" fill="#D9D9D9" stroke="#D9D9D9"/>
<path id="b_16406E" d="M169.234 175.516L166.234 178.016L186.234 180.516L186.734 183.016L204.234 185.016L206.234 188.516H212.234L230.734 172.516L229.734 167.516L232.734 166.016L226.234 149.016L181.234 145.516L162.234 159.016L169.234 175.516Z" fill="#D9D9D9" stroke="#D9D9D9"/>
<path id="b_67406D" d="M200.734 132.016L181.734 145.016L226.734 148.516L233.234 166.016L230.234 167.516L231.234 172.516L245.734 163.016V157.516H244.734V155.016L256.234 145.516V142.516L243.734 140.516V136.516L242.234 135.516L200.734 132.016Z" fill="#D9D9D9" stroke="#D9D9D9"/>
<path id="b_739594" d="M218.734 120.016L222.734 133.016L242.234 135.016L244.234 136.516V140.016L257.234 142.016V145.516L256.234 147.016H260.734L274.234 135.516V131.016L276.234 128.516L271.734 113.016L232.734 111.016L218.734 120.016Z" fill="#D9D9D9" stroke="#D9D9D9"/>
<path id="b_396365" d="M246.234 101.516L233.234 110.516L271.734 112.516L277.234 128.516L274.734 131.016V135.516L285.734 126.516L284.734 122.016L294.234 114.016V110.516H284.734V104.016H283.734L246.234 101.516Z" fill="#D9D9D9" stroke="#D9D9D9"/>
<path id="b_836A7D" d="M261.234 93.0164L263.234 102.516L285.234 103.516V110.016H294.734V114.016L291.734 116.516H298.734L306.734 107.516L306.234 102.516L308.234 102.016L305.734 87.0164L272.234 85.5164L261.234 93.0164Z" fill="#D9D9D9" stroke="#D9D9D9"/>
<path id="b_4A7C6F" d="M281.734 78.0164L272.234 85.0164L306.234 86.5164L309.234 102.516L306.734 103.016L307.234 107.516L315.734 100.016V96.0164L317.734 93.0164L321.234 91.0164L322.734 87.0164H315.734L314.734 80.0164L281.734 78.0164Z" fill="#D9D9D9" stroke="#D9D9D9"/>
<path id="b_87518B" d="M292.234 71.0164L294.734 78.0164L315.234 79.0164L316.734 86.5164H323.734L321.734 91.5164L318.734 93.0164H326.234L333.234 85.5164L332.234 81.5164L334.734 79.5164L331.734 67.0164L302.234 65.0164L292.234 71.0164Z" fill="#D9D9D9" stroke="#D9D9D9"/>
<path id="b_636F8C" d="M309.734 59.5164L302.234 64.0164L332.234 66.5164L335.734 79.5164L332.734 81.5164L333.734 85.5164L339.234 79.5164V75.5164L345.234 71.0164V67.5164H339.734V60.5164L309.734 59.5164Z" fill="#D9D9D9" stroke="#D9D9D9"/>
<path id="b_789288" d="M318.234 54.5164L319.234 59.0164L340.734 60.0164V67.0164H345.734L346.234 71.0164L342.734 74.0164L348.234 73.5164L352.234 69.5164V63.0164H353.734V51.0164L324.734 50.0164L318.234 54.5164Z" fill="#D9D9D9" stroke="#D9D9D9"/>
<path id="b_87508A" d="M331.734 44.5164L325.234 49.5164H324.734L354.234 50.5164V63.5164H352.734V69.5164L358.734 62.5164L359.234 58.5164L363.734 55.0164V52.5164L360.734 52.0164V45.5164L331.734 44.5164Z" fill="#D9D9D9" stroke="#D9D9D9"/>
<path id="b_835A39" d="M339.234 40.0164L339.734 43.5164V44.0164L361.234 44.5164V51.5164L364.734 52.5164V55.5164L360.734 58.0164H363.734L369.734 53.5164V49.5164L371.234 48.0164V44.5164L370.734 44.0164V37.0164H369.734L344.734 36.5164L339.234 40.0164Z" fill="#D9D9D9" stroke="#D9D9D9"/>
<path id="b_668D6C" d="M352.234 32.0164L345.734 36.0164H345.234L371.234 36.5164V44.0164H371.734V48.0164L370.234 49.5164V53.5164L374.234 49.5164V45.5164L378.734 43.0164C378.901 42.0164 379.234 39.9164 379.234 39.5164C379.234 39.1164 377.234 39.3497 376.234 39.5164L375.734 33.0164L352.234 32.0164Z" fill="#D9D9D9" stroke="#D9D9D9"/>
<path id="b_8F4F88" d="M358.734 27.0164L353.234 31.0164L376.234 32.5164L376.734 39.0164H377.234H379.734V40.0164L378.734 43.5164L374.734 46.0164L375.234 48.0164L382.234 43.0164L382.734 40.0164L386.734 35.0164L382.734 34.0164V28.0164L358.734 27.0164Z" fill="#D9D9D9" stroke="#D9D9D9"/>
<path id="b_6E4D83" d="M389.234 35.5164L385.234 41.0164L410.234 43.0164L409.734 57.0164L414.734 53.0164L416.234 36.0164L389.234 35.5164Z" fill="#D9D9D9" stroke="#D9D9D9"/>
<path id="b_8E0C16" d="M409.734 43.5164L382.734 42.5164L378.234 46.0164L405.734 47.0164L406.234 59.0164L404.234 61.5164V64.0164L409.234 59.5164L409.734 43.5164Z" fill="#D9D9D9" stroke="#D9D9D9"/>
<path id="b_875A3A" d="M373.234 51.0164V56.0164V56.5164L395.734 57.5164V72.0164H397.734L403.234 65.5164V62.0164L405.734 58.5164L405.234 47.5164L378.234 46.5164L373.234 51.0164Z" fill="#D9D9D9" stroke="#D9D9D9"/>
<path id="b_685591" d="M396.734 74.5164L390.234 81.0164H389.734H389.234V77.5164L391.234 75.5164V63.0164L359.734 61.5164L366.734 56.5164L395.234 58.0164V72.5164H396.234L396.734 74.5164Z" fill="#D9D9D9" stroke="#D9D9D9"/>
<path id="b_718182" d="M390.734 81.5164L382.734 89.5164H379.734V74.5164L354.234 74.0164V68.5164L359.234 62.0164L390.734 63.5164V75.0164L388.734 77.0164L389.234 81.5164H390.734Z" fill="#D9D9D9" stroke="#D9D9D9"/>
<path id="b_5A5E4F" d="M346.234 74.0164L340.734 79.0164L340.234 79.5164L372.734 82.5164L373.734 96.0164L371.234 99.0164V103.016L379.234 94.5164V75.0164L346.234 74.0164Z" fill="#D9D9D9" stroke="#D9D9D9"/>
<path id="b_8A9181" d="M370.734 104.016L362.734 112.516H358.734L356.734 98.0164L331.734 96.5164L330.734 89.5164L339.234 80.0164L372.234 83.0164L373.234 96.0164L370.734 98.5164V104.016Z" fill="#D9D9D9"/>
<path id="b_8D7F7C" d="M320.734 96.0164L311.734 104.016L349.734 106.516L352.234 121.516L347.734 125.516L348.734 129.016L358.734 118.516L356.234 98.5164L320.734 96.0164Z" fill="#D9D9D9" stroke="#D9D9D9"/>
<path id="b_579285" d="M348.734 129.516L337.234 142.516H331.734L328.234 128.016L303.234 126.516L300.734 115.516L311.234 104.516L349.234 107.016L351.734 121.016L347.234 125.016L348.734 129.516Z" fill="#D9D9D9" stroke="#D9D9D9"/>
<path id="b_898B5C" d="M332.734 149.016L319.234 164.016L318.234 164.516L317.734 160.016L322.234 154.516L316.734 138.516L275.234 136.016L286.234 125.516L327.734 128.516L331.234 143.016L332.734 149.016Z" fill="#D9D9D9" stroke="#D9D9D9"/>
<path id="b_90764B" d="M264.234 162.016L259.734 165.516L290.234 169.016L293.734 183.016H302.734L318.234 165.016L317.234 160.016L321.734 154.516L316.234 139.016L273.734 136.016L260.234 147.516L264.234 162.016Z" fill="#D9D9D9" stroke="#D9D9D9"/>
<path id="b_496F8C" d="M296.234 191.016L277.734 212.516L275.234 208.016L279.734 202.516L274.234 184.516L223.734 179.516L244.234 164.516L289.734 169.516L296.234 191.016Z" fill="#D9D9D9" stroke="#D9D9D9"/>
<path id="b_8E938D" d="M254.734 239.516L277.234 213.016L274.734 208.016L279.234 202.516L273.734 185.016L222.734 180.016L202.234 197.516L207.734 213.016L195.734 224.016V228.516L223.234 231.016L227.734 228.016L231.234 237.016L254.734 239.516Z" fill="#D9D9D9" stroke="#D9D9D9"/>
<path id="b_8E9592" d="M324.234 247.516L300.234 245.016L295.734 231.016C296.901 229.183 299.334 225.516 299.734 225.516H295.734L291.234 207.016L307.234 188.016L362.234 192.516L366.234 211.516L361.234 217.516L362.234 222.516L349.734 243.016L346.234 243.516V246.016L328.234 244.016L324.234 247.516Z" fill="#D9D9D9" stroke="#D9D9D9"/>
<path id="b_81907A" d="M319.734 171.516L307.234 187.516L362.734 192.016L366.734 211.516L361.734 217.516L362.734 222.516L371.734 206.516V199.516L381.234 185.016V181.516L372.734 180.516V175.516L319.734 171.516Z" fill="#D9D9D9" stroke="#D9D9D9"/>
<path id="b_8F5A33" d="M337.234 171.516L339.734 172.516L373.234 175.016V180.016L381.734 181.016V185.016L390.234 171.516V165.516L393.234 162.516L392.234 145.016L345.734 141.016L334.734 154.016L337.234 171.516Z" fill="#D9D9D9" stroke="#D9D9D9"/>
<path id="b_504E85" d="M354.734 130.016L346.234 140.516L392.734 144.516L393.734 162.516L390.734 165.516V171.516L397.734 160.83V154.516L404.234 145.016L405.234 139.016L399.234 138.516V133.016L354.734 130.016Z" fill="#D9D9D9" stroke="#D9D9D9"/>
<path id="b_1F5A33" d="M364.734 118.016L366.234 130.016H366.093L399.734 132.516V138.016L405.734 138.516L404.734 145.016L410.734 135.016V131.016L413.734 126.516L413.234 110.016L373.234 108.016L364.734 118.016Z" fill="#D9D9D9" stroke="#D9D9D9"/>
<path id="b_729592" d="M417.234 126.016L411.234 134.516V131.516L414.234 126.516L413.734 109.516L373.234 107.516L379.734 99.5164L418.734 101.516V108.516L422.734 109.016L422.234 113.516L416.734 120.516L417.234 126.016Z" fill="#D9D9D9" stroke="#D9D9D9"/>
<path id="b_95917F" d="M387.734 90.0164L388.234 99.0164L419.234 100.516V108.016L423.234 108.516L422.734 114.016L427.234 107.016V103.016L429.234 99.5164L428.734 85.0164L393.734 83.5164L387.734 90.0164Z" fill="#D9D9D9" stroke="#D9D9D9"/>
<path id="b_745795" d="M399.734 76.5164L393.734 82.5164L429.234 84.5164L429.734 99.5164L427.734 103.516V107.016L431.734 99.0164V94.5164L435.734 89.0164L435.234 86.0164H433.234L432.734 78.0164L399.734 76.5164Z" fill="#D9D9D9" stroke="#D9D9D9"/>
<path id="b_906C85" d="M404.734 69.5164L405.234 76.0164L433.234 77.5164L433.734 85.5164H435.734L436.234 89.0164L438.734 87.0164L439.234 82.0164L441.734 79.0164V65.0164L409.734 64.0164L404.734 69.5164Z" fill="#D9D9D9" stroke="#D9D9D9"/>
<path id="b_3F838B" d="M414.234 58.5164L409.734 63.5164L442.734 64.5164V76.5164L446.734 68.5164L447.234 67.0164L444.734 66.5164L444.234 59.5164L414.234 58.5164Z" fill="#D9D9D9" stroke="#D9D9D9"/>
<path id="b_807B6A" d="M418.734 53.0164V57.5164L444.734 59.0164L445.234 66.0164L447.734 66.5164L445.734 73.0164L448.734 67.5164V65.0164L451.234 62.0164V49.5164L422.734 48.5164L418.734 53.0164Z" fill="#D9D9D9" stroke="#D9D9D9"/>
<path id="b_767A64" d="M426.234 44.0164L422.734 47.5164L451.734 49.0164L452.234 59.0164L454.734 54.0164L455.234 51.5164H453.734L454.234 44.5164L426.234 44.0164Z" fill="#D9D9D9" stroke="#D9D9D9"/>
<path id="b_684A7E" d="M457.234 38.0164L437.234 37.5164H431.234L427.234 43.5164H454.234V50.5164L456.234 51.5164L459.234 45.5164L458.234 46.0164L457.234 38.0164Z" fill="#D9D9D9" stroke="#D9D9D9"/>
<path id="b_847D73" d="M302.734 374.516L308.234 390.516L355.234 403.016L381.734 343.516L379.234 329.516L383.734 323.016L379.234 299.516L344.234 292.016L334.734 308.016H332.234L311.734 342.016V348.016L302.734 362.016L306.234 370.516L302.734 374.516Z" fill="#D9D9D9" stroke="#D9D9D9"/>
</g>
</g>
<defs>
<clipPath id="clip0_75_83">
<rect width="509" height="404" fill="white"/>
</clipPath>
</defs>
</svg>
